<?xml version="1.0" encoding="utf-8"?>
<!-- Generator: Adobe Illustrator 27.6.1, SVG Export Plug-In . SVG Version: 6.00 Build 0)  -->
<svg version="1.1" id="Layer_1" xmlns="http://www.w3.org/2000/svg" xmlns:xlink="http://www.w3.org/1999/xlink" x="0px" y="0px"
	 viewBox="0 0 1285 390" style="enable-background:new 0 0 1285 390;" xml:space="preserve">
<style type="text/css">
	.st0{fill:#002D72;}
	.st1{clip-path:url(#SVGID_00000127755569424461498500000016338118925809052310_);fill:#002D72;}
	.st2{clip-path:url(#SVGID_00000127755569424461498500000016338118925809052310_);fill:#044C7D;}
	.st3{clip-path:url(#SVGID_00000098222580442568661280000003019895515478175388_);fill:#002D72;}
	.st4{clip-path:url(#SVGID_00000143600326810625943630000012152349984279125676_);}
	.st5{clip-path:url(#SVGID_00000072994883963121529330000005244432742563373713_);}
	.st6{display:none;fill:#043673;}
	.st7{fill:#FFFFFF;}
	.st8{clip-path:url(#SVGID_00000162328771236079351170000007134408977896157328_);fill:#FFFFFF;}
	.st9{clip-path:url(#SVGID_00000129900163266213250240000000486168693564553659_);fill:#FFFFFF;}
	.st10{clip-path:url(#SVGID_00000145760888155743543620000002082544554094185871_);fill:#002D72;}
	.st11{clip-path:url(#SVGID_00000145760888155743543620000002082544554094185871_);fill:#044C7D;}
	.st12{clip-path:url(#SVGID_00000025411614137192758760000012518277597810496447_);fill:#002D72;}
	.st13{clip-path:url(#SVGID_00000122718021431553363000000002155516883730166953_);}
	.st14{clip-path:url(#SVGID_00000181074040534155497280000005413142067206078614_);}
	.st15{clip-path:url(#SVGID_00000149370446179052188370000005366177075445763994_);fill:#FFFFFF;}
	.st16{clip-path:url(#SVGID_00000023995897556117690090000015839032607150258837_);fill:#FFFFFF;}
</style>
<rect x="-6.2" y="-0.5" class="st6" width="1291.2" height="390.5"/>
<g>
	<g>
		<path class="st7" d="M476.2,256.7c0-3.7-0.1-10.6-1.1-12.4c-0.4-0.7-1.5-1.1-3-1.3l-1.5-0.1c-0.4-0.4-0.2-1.2,0.1-1.4
			c2.3,0.1,4.5,0.2,6.8,0.2c2.5,0,4.1-0.1,6.3-0.2c0.5,0.3,0.4,1.1,0.1,1.4l-1.4,0.1c-1.5,0.1-2.6,0.7-3,1.4
			c-0.8,2-0.8,8.9-0.8,12.2v6.8c0,5.2-0.8,10.7-4.2,14.3c-2.6,2.8-7,4.4-11.5,4.4c-4.1,0-8.3-0.8-11.2-3.3c-3.2-2.6-4.7-7-4.7-14.2
			v-14.2c0-6.2-0.1-7.3-3.6-7.6l-1.5-0.1c-0.4-0.2-0.2-1.3,0.1-1.4c3,0.1,5,0.2,7.4,0.2c2.5,0,4.4-0.1,7.4-0.2
			c0.4,0.2,0.5,1.2,0.1,1.4l-1.4,0.1c-3.5,0.3-3.6,1.3-3.6,7.6v13c0,9.7,3,16,12.2,16c8.7,0,12-6.8,12-16V256.7z"/>
		<path class="st7" d="M554.6,271.1c0,1.8,0,8.9,0.2,10.5c-0.1,0.4-0.5,0.7-1.1,0.7c-0.7-1-2.5-3.1-7.7-9.1l-13.9-15.8
			c-1.6-1.9-5.7-6.8-7-8.1H525c-0.2,0.7-0.3,2.1-0.3,3.9v13.1c0,2.8,0.1,10.6,1.1,12.4c0.4,0.7,1.6,1,3.1,1.1l1.9,0.2
			c0.4,0.5,0.3,1.2-0.1,1.5c-2.7-0.1-4.8-0.2-7-0.2c-2.5,0-4.1,0.1-6.2,0.2c-0.4-0.3-0.5-1.1-0.1-1.5l1.6-0.2
			c1.4-0.2,2.3-0.5,2.6-1.2c0.8-2.1,0.8-9.5,0.8-12.4v-17.3c0-1.7-0.1-2.9-1.3-4.3c-0.8-0.8-2.3-1.3-3.7-1.4l-1-0.1
			c-0.4-0.4-0.4-1.3,0.1-1.5c2.5,0.2,5.7,0.2,6.8,0.2c1,0,2-0.1,2.8-0.2c1.2,3.1,8.3,11,10.3,13.2l5.8,6.5c4.1,4.6,7.1,8,9.9,10.9
			h0.1c0.2-0.3,0.2-1.3,0.2-2.5v-12.8c0-2.8-0.1-10.6-1.2-12.4c-0.4-0.6-1.3-0.9-3.7-1.2l-1-0.1c-0.4-0.4-0.4-1.3,0.1-1.5
			c2.8,0.1,4.8,0.2,7.1,0.2c2.6,0,4.1-0.1,6.2-0.2c0.5,0.3,0.5,1.1,0.1,1.5l-0.8,0.1c-1.9,0.3-3.1,0.8-3.4,1.3
			c-1,2.2-0.9,9.6-0.9,12.4V271.1z"/>
		<path class="st7" d="M599.3,250.8c0-6.4-0.1-7.4-3.7-7.7l-1.5-0.1c-0.4-0.2-0.2-1.3,0.1-1.5c3,0.1,5,0.2,7.6,0.2
			c2.4,0,4.4-0.1,7.4-0.2c0.4,0.2,0.5,1.3,0.1,1.5l-1.5,0.1c-3.5,0.3-3.7,1.3-3.7,7.7v21.4c0,6.4,0.1,7.2,3.7,7.6l1.5,0.2
			c0.4,0.2,0.2,1.3-0.1,1.5c-3-0.1-5-0.2-7.4-0.2c-2.5,0-4.6,0.1-7.6,0.2c-0.4-0.2-0.5-1.1-0.1-1.5l1.5-0.2c3.5-0.4,3.7-1.3,3.7-7.6
			V250.8z"/>
		<path class="st7" d="M647.9,248c-1.4-3.4-2.3-4.6-4.9-4.9L642,243c-0.4-0.4-0.4-1.2,0.1-1.5c1.7,0.1,3.7,0.2,6.2,0.2
			c2.6,0,4.7-0.1,7.3-0.2c0.4,0.2,0.5,1.1,0.1,1.5l-0.9,0.1c-2.3,0.3-2.8,0.7-2.8,1.1c0.1,0.6,1.1,3.8,3,8.4
			c2.8,7,5.5,13.9,8.5,20.7c1.8-4,4.4-10.1,5.8-13.3c1.7-4.1,4.6-10.9,5.6-13.4c0.5-1.3,0.5-1.9,0.5-2.3c0-0.4-0.6-0.9-2.7-1.1
			l-1.1-0.1c-0.4-0.4-0.3-1.3,0.1-1.5c1.7,0.1,4,0.2,6.2,0.2c2,0,3.8-0.1,5.8-0.2c0.4,0.2,0.4,1.2,0.1,1.5l-1.8,0.1
			c-1.4,0.1-2.3,0.8-3.1,2.1c-1.7,2.8-4,7.7-6.7,13.8l-3.2,7.4c-2.4,5.5-5.2,12.5-6.2,15.7c-0.2,0.1-0.4,0.2-0.6,0.2
			c-0.3,0-0.6-0.1-0.9-0.2c-0.7-2.5-1.7-5.5-2.8-8L647.9,248z"/>
		<path class="st7" d="M720.1,250.7c0-6.3-0.1-7.2-3.7-7.6l-1-0.1c-0.4-0.2-0.2-1.3,0.1-1.5c2.6,0.1,4.6,0.2,7.1,0.2H734
			c3.8,0,7.4,0,8.1-0.2c0.4,1,0.7,5.3,1,8c-0.2,0.4-1.2,0.5-1.5,0.1c-0.9-2.8-1.4-4.9-4.6-5.7c-1.3-0.3-3.2-0.4-5.8-0.4h-4.3
			c-1.8,0-1.8,0.1-1.8,2.4v12c0,1.7,0.2,1.7,2,1.7h3.5c2.5,0,4.4-0.1,5.1-0.4c0.7-0.2,1.1-0.6,1.4-2.1l0.5-2.5
			c0.3-0.4,1.3-0.4,1.5,0.1c0,1.4-0.2,3.8-0.2,6.1c0,2.2,0.2,4.4,0.2,5.7c-0.2,0.4-1.3,0.4-1.5,0.1l-0.6-2.3c-0.2-1.1-0.6-2-1.8-2.3
			c-0.8-0.2-2.3-0.3-4.6-0.3H727c-1.8,0-2,0.1-2,1.6v8.5c0,3.2,0.2,5.2,1.1,6.2c0.7,0.7,2,1.4,7.3,1.4c4.6,0,6.4-0.2,7.7-0.9
			c1.1-0.6,2.7-2.7,4.3-5.8c0.4-0.3,1.3-0.1,1.5,0.4c-0.4,2.1-1.9,6.7-2.7,8.3c-5.4-0.1-10.7-0.2-16.1-0.2h-5.4
			c-2.6,0-4.6,0.1-8.2,0.2c-0.4-0.2-0.5-1.1-0.1-1.5l2-0.2c3.4-0.3,3.7-1.2,3.7-7.5V250.7z"/>
		<path class="st7" d="M785.2,250.7c0-5.7-0.2-6.7-2.6-7l-1.9-0.2c-0.4-0.3-0.4-1.3,0.1-1.5c3.3-0.3,7.5-0.5,13.4-0.5
			c3.7,0,7.3,0.3,10,1.8c2.9,1.5,5,4.2,5,8.4c0,5.7-4.5,8.8-7.5,10c-0.3,0.4,0,1,0.3,1.4c4.8,7.7,8,12.5,12.1,16
			c1,0.9,2.5,1.6,4.1,1.7c0.3,0.1,0.4,0.6,0.1,0.8c-0.5,0.2-1.5,0.3-2.6,0.3c-5.1,0-8.2-1.5-12.4-7.6c-1.6-2.2-4-6.4-5.9-9.1
			c-0.9-1.3-1.9-1.9-4.3-1.9c-2.7,0-2.8,0.1-2.8,1.3v7.6c0,6.3,0.1,7,3.6,7.5l1.2,0.2c0.4,0.3,0.2,1.3-0.1,1.5
			c-2.7-0.1-4.7-0.2-7.1-0.2c-2.5,0-4.7,0.1-7.5,0.2c-0.4-0.2-0.5-1.1-0.1-1.5l1.5-0.2c3.5-0.4,3.6-1.2,3.6-7.5V250.7z M790.1,259.3
			c0,1.1,0,1.7,0.2,2c0.2,0.2,1.1,0.3,4.1,0.3c2.2,0,4.4-0.2,6.2-1.6c1.6-1.3,3-3.4,3-7.4c0-4.7-2.9-9.2-9.6-9.2
			c-3.7,0-3.9,0.2-3.9,1.9V259.3z"/>
		<path class="st7" d="M857.7,282.2c-5,0-8.2-1.6-9.4-2.2c-0.7-1.3-1.5-5.6-1.6-8.4c0.3-0.4,1.2-0.5,1.4-0.2
			c0.9,3.1,3.4,8.9,10.3,8.9c5,0,7.5-3.3,7.5-6.9c0-2.6-0.5-5.6-4.9-8.4l-5.7-3.7c-3-2-6.5-5.4-6.5-10.3c0-5.7,4.4-10.3,12.2-10.3
			c1.9,0,4,0.4,5.6,0.8c0.8,0.2,1.6,0.4,2.1,0.4c0.5,1.4,1.1,4.8,1.1,7.3c-0.2,0.4-1.2,0.5-1.5,0.2c-0.8-2.9-2.4-6.8-8.2-6.8
			c-5.9,0-7.1,3.9-7.1,6.7c0,3.5,2.9,6,5.1,7.4l4.8,3c3.8,2.3,7.5,5.8,7.5,11.5C870.5,277.7,865.5,282.2,857.7,282.2"/>
		<path class="st7" d="M911.2,250.8c0-6.4-0.1-7.4-3.7-7.7l-1.5-0.1c-0.4-0.2-0.2-1.3,0.1-1.5c3,0.1,5,0.2,7.6,0.2
			c2.4,0,4.4-0.1,7.4-0.2c0.4,0.2,0.5,1.3,0.1,1.5l-1.5,0.1c-3.5,0.3-3.7,1.3-3.7,7.7v21.4c0,6.4,0.1,7.2,3.7,7.6l1.5,0.2
			c0.4,0.2,0.2,1.3-0.1,1.5c-3-0.1-5-0.2-7.4-0.2c-2.5,0-4.6,0.1-7.6,0.2c-0.4-0.2-0.5-1.1-0.1-1.5l1.5-0.2c3.5-0.4,3.7-1.3,3.7-7.6
			V250.8z"/>
		<path class="st7" d="M977.8,272.3c0,6.3,0.1,7.2,3.6,7.5l1.9,0.2c0.4,0.2,0.2,1.3-0.1,1.5c-3.4-0.1-5.5-0.2-7.9-0.2
			c-2.4,0-4.5,0.1-8.3,0.2c-0.4-0.2-0.5-1.2,0-1.5l2.2-0.2c3.4-0.3,3.7-1.2,3.7-7.5v-26.8c0-1.9,0-1.9-1.8-1.9h-3.3
			c-2.6,0-5.9,0.1-7.4,1.5c-1.4,1.3-2,2.6-2.7,4.1c-0.5,0.4-1.3,0.1-1.6-0.4c1-2.7,1.9-6.6,2.3-8.9c0.2-0.1,1-0.2,1.1,0
			c0.4,1.9,2.3,1.9,5.1,1.9H989c3.2,0,3.8-0.1,4.7-1.7c0.3-0.1,1-0.1,1.1,0.2c-0.7,2.5-1.1,7.3-0.9,9.1c-0.2,0.5-1.3,0.5-1.6,0.1
			c-0.2-1.5-0.6-3.7-1.5-4.4c-1.4-1-3.7-1.5-7-1.5h-4.3c-1.8,0-1.7,0.1-1.7,2V272.3z"/>
		<path class="st7" d="M1046.2,272.2c0,6.4,0.4,7.4,3.6,7.6l2.3,0.2c0.3,0.4,0.2,1.3-0.1,1.5c-3.7-0.1-5.8-0.2-8.2-0.2
			c-2.5,0-4.7,0.1-7.9,0.2c-0.4-0.2-0.5-1.1-0.1-1.5l1.9-0.2c3.5-0.4,3.6-1.2,3.6-7.6v-3.1c0-3.3-0.2-4.1-1.9-7.4l-7.1-13.8
			c-2-4-2.9-4.3-4.7-4.6l-1.7-0.3c-0.4-0.4-0.3-1.3,0.1-1.5c1.9,0.1,4.1,0.2,7,0.2c2.8,0,4.9-0.1,6.4-0.2c0.5,0.2,0.5,1.1,0.2,1.5
			l-0.8,0.1c-2.1,0.3-2.5,0.6-2.5,1.1c0,0.6,1.6,4,1.9,4.6c2.2,4.4,4.4,9.2,6.8,13.3c1.8-3.2,3.8-6.7,5.6-10.1
			c1.7-3.1,3.9-7.2,3.9-7.9c0-0.4-1.1-0.8-2.5-1l-1.1-0.1c-0.4-0.4-0.4-1.3,0.1-1.5c2.1,0.1,3.9,0.2,5.8,0.2c1.9,0,3.5-0.1,5.6-0.2
			c0.5,0.3,0.5,1.1,0.1,1.5l-1.7,0.3c-3.1,0.5-4.9,4.3-7.9,9.5l-3.8,6.5c-2.6,4.6-2.8,5.1-2.8,9.7V272.2z"/>
	</g>
	<g>
		<defs>
			<rect id="SVGID_00000170977635968456721140000012573478855684690319_" x="90.9" y="90.8" width="194.9" height="210"/>
		</defs>
		<clipPath id="SVGID_00000071522195625928098810000017325383993162286242_">
			<use xlink:href="#SVGID_00000170977635968456721140000012573478855684690319_"  style="overflow:visible;"/>
		</clipPath>
		<path style="clip-path:url(#SVGID_00000071522195625928098810000017325383993162286242_);fill:#FFFFFF;" d="M242.8,112.2
			c-0.2-0.3-9.5-4.9-9.5-4.9c-11.8-2.5-31.3-1.4-44.9,3.6h0c-13.6-5-33.1-6.1-44.9-3.6c0,0-9.3,4.6-9.5,4.9L119.5,144
			c-0.5,0.9,0.3,1.6,1.1,1.5c21.9-4.2,47.1-5.4,67.7-5.4h0c20.6,0,45.8,1.3,67.7,5.4c0.8,0.2,1.6-0.6,1.1-1.5L242.8,112.2z
			 M184.9,135.1c-15.6-0.6-42.6-0.6-56.1,4.2l9.6-24.1l6.6-3.5l-7,19.8c14.1-2.7,29.7-3.7,47,2L184.9,135.1z M191.5,135.1v-1.5
			c17.3-5.7,32.9-4.7,47-2l-7-19.8l6.6,3.5l9.6,24.1C234.8,134.5,207.8,134.5,191.5,135.1"/>
		<path style="clip-path:url(#SVGID_00000071522195625928098810000017325383993162286242_);fill:#FFFFFF;" d="M277.8,100.3
			L277.8,100.3l-0.7-0.2c-29-6.2-58.9-9.4-88.7-9.4c-29.8,0-59.7,3.2-88.8,9.4l-0.3,0.1l-0.3,0.1c-4.7,1.1-8.1,5.5-8.1,10.6l0,15.8
			c0,114,70.5,160.3,92.2,171.7c1.7,0.9,3.5,1.4,5.3,1.4c1.8,0,3.6-0.5,5.3-1.4c21.6-11.4,92.1-57.7,92.1-171.7v-15.8
			C285.8,105.9,282.5,101.6,277.8,100.3 M184.4,291.8c-23.8-13.2-71.7-50.5-84.1-127l0.6-0.1c27.3-5.8,55.3-8.8,83.5-9V291.8z
			 M259.8,218.5C259.8,218.5,259.7,218.5,259.8,218.5c-5.1,10.6-10.8,19.9-16.9,28c0,0,0,0,0,0c-5.5,7.4-11.2,14-16.9,19.6v-30.8
			l-16.9-11.2v56.7c-6.3,4.7-12,8.4-16.9,11v-79l16.9,11.2v-39.2L226,196v-38.7c5.6,0.5,11.3,1.1,16.9,1.8v48.1L259.8,218.5l0-56.8
			c5.4,0.9,10.8,1.9,16.1,3l0.6,0.1C273.1,185.5,267.1,203.2,259.8,218.5 M192.3,173.6v-17.9c5.6,0,11.2,0.2,16.9,0.5v28.7
			L192.3,173.6z M279.4,126.6c0,10.4-0.6,20.2-1.8,29.5c-58.5-12.4-120-12.4-178.6,0c-1.1-9.3-1.8-19.1-1.8-29.5l0-15.8
			c0-2.1,1.5-3.9,3.5-4.4l0.1,0c28.2-6,57.5-9.2,87.5-9.2c30,0,59.2,3.2,87.4,9.2l0.1,0c2.1,0.4,3.6,2.3,3.6,4.5L279.4,126.6z"/>
		<polygon style="clip-path:url(#SVGID_00000071522195625928098810000017325383993162286242_);fill:#FFFFFF;" points="242.9,207.2 
			226,196 226,235.3 242.9,246.5 		"/>
		<path style="clip-path:url(#SVGID_00000071522195625928098810000017325383993162286242_);fill:#FFFFFF;" d="M148.3,232
			c17,0,30.9-13.8,30.9-30.9c0-17-13.8-30.9-30.9-30.9s-30.9,13.8-30.9,30.9C117.4,218.1,131.3,232,148.3,232 M153.9,227.5
			c2.4-2.6,5.2-6.3,7.4-11.2c3,0.6,5.5,1.4,7.6,2.2C165.1,223,159.9,226.2,153.9,227.5 M171.2,215.3c-2.3-0.9-5.1-1.9-8.6-2.7
			c0.9-2.9,1.5-6,1.7-9.5h10.8C174.8,207.5,173.4,211.7,171.2,215.3 M171.2,187c2.2,3.6,3.6,7.7,4,12.2h-10.8
			c-0.2-3.5-0.8-6.7-1.7-9.5C166.1,188.9,168.9,187.9,171.2,187 M168.9,183.7c-2.1,0.8-4.6,1.6-7.6,2.2c-2.1-4.9-5-8.6-7.4-11.2
			C159.9,176,165.1,179.2,168.9,183.7 M150.2,176.5c2.1,2.2,4.9,5.6,7,10.1c-2.2,0.3-4.5,0.5-7,0.6V176.5z M150.2,191.1
			c3.1-0.1,5.9-0.4,8.5-0.8c0.9,2.6,1.5,5.6,1.7,8.8h-10.2V191.1z M150.2,203.1h10.2c-0.2,3.2-0.8,6.2-1.7,8.8
			c-2.6-0.4-5.4-0.7-8.5-0.8V203.1z M150.2,215c2.5,0.1,4.9,0.3,7,0.6c-2.1,4.5-4.9,7.9-7,10.1V215z M127.7,218.5
			c2.1-0.8,4.6-1.6,7.6-2.2c2.1,4.9,5,8.7,7.4,11.2C136.7,226.2,131.5,223,127.7,218.5 M146.3,225.6c-2.1-2.2-4.9-5.6-7-10.1
			c2.2-0.3,4.5-0.5,7-0.6V225.6z M146.3,211.1c-3.1,0.1-5.9,0.3-8.5,0.8c-0.9-2.6-1.5-5.6-1.7-8.8h10.2V211.1z M146.3,199.2h-10.2
			c0.2-3.2,0.8-6.2,1.7-8.8c2.6,0.4,5.4,0.7,8.5,0.8V199.2z M146.3,187.2c-2.5-0.1-4.8-0.3-7-0.6c2.1-4.5,4.9-7.9,7-10.1V187.2z
			 M142.7,174.7c-2.4,2.6-5.2,6.3-7.4,11.2c-3-0.6-5.5-1.4-7.6-2.2C131.5,179.2,136.7,176,142.7,174.7 M125.4,187
			c2.3,0.9,5.1,1.9,8.6,2.7c-0.9,2.9-1.5,6-1.7,9.5h-10.8C121.7,194.7,123.1,190.6,125.4,187 M121.4,203.1h10.8
			c0.2,3.5,0.8,6.7,1.7,9.5c-3.4,0.8-6.3,1.7-8.6,2.7C123.1,211.7,121.7,207.5,121.4,203.1"/>
	</g>
	<g>
		<defs>
			<rect id="SVGID_00000039848002602284884560000001179543659886369726_" x="316.5" y="112.6" width="871.4" height="119"/>
		</defs>
		<clipPath id="SVGID_00000080922633369222197000000006918892296763344546_">
			<use xlink:href="#SVGID_00000039848002602284884560000001179543659886369726_"  style="overflow:visible;"/>
		</clipPath>
		<path style="clip-path:url(#SVGID_00000080922633369222197000000006918892296763344546_);fill:#FFFFFF;" d="M341.5,134
			c0-15.3-1.4-16.9-9.5-17.6l-3.4-0.3c-0.8-0.6-0.6-3,0.3-3.4c8,0.3,12.7,0.4,18.5,0.4c5.5,0,10.2-0.1,15.7-0.4
			c0.8,0.4,1.1,2.9,0.3,3.4l-2.1,0.3c-8.1,1.1-8.4,3-8.4,17.6v51.1c0,10.9-0.6,20.4-3.2,26.7c-4.6,11-14.3,19.8-27.1,19.8
			c-1.6,0-5.9-0.1-5.9-2.9c0-2.3,2.1-6.3,5-6.3c1.7,0,3.3,0.3,5.1,0.8c1.9,0.5,3.9,1,5.8,1c2.9,0,4.6-1.7,5.5-3.6
			c3.2-6.5,3.6-27.1,3.6-34.6V134z"/>
		<path style="clip-path:url(#SVGID_00000080922633369222197000000006918892296763344546_);fill:#FFFFFF;" d="M362.9,166.4
			c0-23.2,17.4-41,41.4-41c26.8,0,40.3,19.4,40.3,39.9c0,23.5-17.9,40.5-40.3,40.5C378.5,205.8,362.9,187.3,362.9,166.4 M433,168.9
			c0-19.2-8.5-39.9-30.7-39.9c-12.1,0-27.8,8.3-27.8,33.7c0,17.2,8.4,39.5,31.3,39.5C419.8,202.2,433,191.7,433,168.9"/>
		<path style="clip-path:url(#SVGID_00000080922633369222197000000006918892296763344546_);fill:#FFFFFF;" d="M471,166.4
			c-5.6,0-5.8,0.2-5.8,3.7v16.4c0,12.2,0.6,13.8,7.1,14.5l3.4,0.4c0.7,0.5,0.5,2.6-0.2,2.9c-6.3-0.2-10.2-0.3-14.8-0.3
			c-5,0-8.9,0.2-13.5,0.3c-0.7-0.3-0.9-2.2-0.2-2.9l2-0.4c6.5-1.2,6.7-2.3,6.7-14.5v-41.8c0-12.2-0.8-14.2-6.9-14.6l-3-0.2
			c-0.7-0.5-0.5-2.6,0.2-2.9c5.7,0.1,9.6,0.3,14.6,0.3c4.5,0,8.5-0.1,13.5-0.3c0.7,0.3,0.9,2.4,0.2,2.9l-2.2,0.2
			c-6.7,0.7-7,2.4-7,14.6v13.4c0,3.6,0.2,3.7,5.8,3.7h33.2c5.6,0,5.8-0.1,5.8-3.7v-13.4c0-12.2-0.2-13.9-7.1-14.6l-2.2-0.2
			c-0.7-0.5-0.5-2.6,0.2-2.9c5.3,0.2,9.3,0.3,14.1,0.3c4.5,0,8.5-0.1,13.7-0.3c0.7,0.3,0.9,2.4,0.2,2.9l-2.4,0.2
			c-6.7,0.7-7,2.4-7,14.6v41.8c0,12.2,0.2,13.7,7,14.5l2.8,0.4c0.7,0.5,0.5,2.6-0.2,2.9c-5.6-0.2-9.5-0.3-14-0.3
			c-4.8,0-8.9,0.1-14.1,0.3c-0.7-0.3-0.9-2.2-0.2-2.9l2.2-0.4c7.1-1.2,7.1-2.3,7.1-14.5v-16.4c0-3.5-0.2-3.7-5.8-3.7H471z"/>
		<path style="clip-path:url(#SVGID_00000080922633369222197000000006918892296763344546_);fill:#FFFFFF;" d="M608.7,184.2
			c0,3.5,0,17.3,0.3,20.3c-0.2,0.7-0.9,1.3-2.2,1.3c-1.4-2-4.8-6-14.9-17.5l-27-30.7c-3.1-3.6-11-13.1-13.5-15.7h-0.2
			c-0.5,1.4-0.6,4.1-0.6,7.5v25.3c0,5.5,0.1,20.6,2.1,24c0.7,1.3,3,2,5.9,2.2l3.6,0.4c0.7,0.9,0.6,2.3-0.2,2.9
			c-5.2-0.2-9.3-0.3-13.6-0.3c-4.9,0-8,0.1-12.1,0.3c-0.8-0.6-0.9-2.2-0.2-2.9l3.1-0.4c2.7-0.3,4.5-1,5.1-2.3
			c1.6-4.2,1.5-18.4,1.5-23.9v-33.6c0-3.3-0.1-5.7-2.6-8.4c-1.6-1.6-4.4-2.4-7.2-2.8l-2-0.2c-0.7-0.7-0.7-2.4,0.2-2.9
			c4.9,0.3,11,0.3,13.1,0.3c1.9,0,3.8-0.1,5.3-0.3c2.3,5.9,16,21.3,19.9,25.6l11.3,12.7c8,8.9,13.7,15.5,19.2,21h0.2
			c0.5-0.6,0.5-2.4,0.5-4.9v-24.9c0-5.5-0.1-20.6-2.3-24.1c-0.7-1-2.6-1.7-7.2-2.3l-2-0.2c-0.8-0.7-0.7-2.6,0.2-2.9
			c5.3,0.2,9.3,0.3,13.7,0.3c5,0,8-0.1,12-0.3c0.9,0.6,0.9,2.2,0.2,2.9L617,130c-3.7,0.6-6,1.5-6.5,2.4c-2,4.2-1.7,18.6-1.7,23.9
			V184.2z"/>
		<path style="clip-path:url(#SVGID_00000080922633369222197000000006918892296763344546_);fill:#FFFFFF;" d="M639.4,205.8
			c-9.8,0-15.9-3-18.1-4.3c-1.4-2.6-2.9-10.8-3.1-16.3c0.6-0.8,2.3-1.1,2.8-0.3c1.7,5.9,6.5,17.3,20,17.3c9.8,0,14.5-6.4,14.5-13.4
			c0-5.1-1-10.8-9.5-16.3l-11-7.2c-5.8-3.8-12.5-10.5-12.5-20c0-11,8.6-20,23.7-20c3.6,0,7.8,0.7,10.8,1.5c1.5,0.5,3.1,0.7,4.1,0.7
			c1.1,2.8,2.1,9.3,2.1,14.2c-0.5,0.7-2.3,1-2.9,0.4c-1.5-5.6-4.6-13.1-15.8-13.1c-11.4,0-13.8,7.6-13.8,12.9
			c0,6.7,5.6,11.6,9.9,14.3l9.3,5.8c7.3,4.5,14.5,11.3,14.5,22.3C664.2,197.1,654.5,205.8,639.4,205.8"/>
		<path style="clip-path:url(#SVGID_00000080922633369222197000000006918892296763344546_);fill:#FFFFFF;" d="M733.1,159.5
			c-6.6,0-6.9,0.3-6.9,4.4v19.4c0,14.5,0.7,16.4,8.4,17.2l4,0.4c0.8,0.5,0.5,3-0.3,3.4c-7.4-0.3-12.1-0.4-17.5-0.4
			c-5.9,0-10.6,0.3-16,0.4c-0.8-0.4-1.1-2.6-0.3-3.4l2.3-0.4c7.7-1.4,8-2.8,8-17.2v-49.6c0-14.5-1-16.8-8.1-17.4l-3.6-0.3
			c-0.8-0.5-0.5-3,0.3-3.4c6.7,0.1,11.4,0.4,17.4,0.4c5.4,0,10.1-0.1,16-0.4c0.8,0.4,1.1,2.9,0.3,3.4l-2.6,0.3
			c-8,0.8-8.3,2.9-8.3,17.4v15.8c0,4.3,0.3,4.4,6.9,4.4h39.4c6.6,0,6.9-0.1,6.9-4.4v-15.8c0-14.5-0.3-16.5-8.4-17.4l-2.6-0.3
			c-0.8-0.5-0.5-3,0.3-3.4c6.3,0.3,11,0.4,16.7,0.4c5.4,0,10.1-0.1,16.3-0.4c0.8,0.4,1.1,2.9,0.3,3.4l-2.9,0.3
			c-8,0.8-8.3,2.9-8.3,17.4v49.6c0,14.5,0.3,16.3,8.3,17.2l3.3,0.4c0.8,0.5,0.6,3-0.3,3.4c-6.6-0.3-11.3-0.4-16.7-0.4
			c-5.6,0-10.6,0.1-16.7,0.4c-0.8-0.4-1.1-2.6-0.3-3.4l2.6-0.4c8.4-1.4,8.4-2.8,8.4-17.2v-19.4c0-4.1-0.3-4.4-6.9-4.4H733.1z"/>
		<path style="clip-path:url(#SVGID_00000080922633369222197000000006918892296763344546_);fill:#FFFFFF;" d="M801.4,166.4
			c0-23.2,17.4-41,41.4-41c26.8,0,40.3,19.4,40.3,39.9c0,23.5-17.9,40.5-40.3,40.5C817,205.8,801.4,187.3,801.4,166.4 M871.5,168.9
			c0-19.2-8.5-39.9-30.7-39.9c-12.1,0-27.8,8.3-27.8,33.7c0,17.2,8.4,39.5,31.3,39.5C858.2,202.2,871.5,191.7,871.5,168.9"/>
		<path style="clip-path:url(#SVGID_00000080922633369222197000000006918892296763344546_);fill:#FFFFFF;" d="M904.1,186.5
			c0,12.2,0.2,13.7,7.7,14.5l3.1,0.3c0.7,0.6,0.5,2.6-0.2,2.9c-6.6-0.2-10.5-0.3-15.1-0.3c-4.9,0-9.1,0.1-14.2,0.3
			c-0.7-0.3-0.9-2.2-0.2-2.9l2.4-0.3c6.7-0.9,7-2.3,7-14.5v-42.9c0-9.9-0.2-11.9-5.5-12.4l-4.2-0.5c-0.8-0.7-0.7-2.4,0.2-2.9
			c6.2-0.8,13.4-0.9,23-0.9c9.6,0,16.8,1.3,22.3,4.7c5.3,3.4,9.3,9.4,9.3,17.4c0,10.7-6.6,16-11.6,18.5c-5.1,2.4-11.3,3.5-16,3.5
			c-0.8-0.3-0.8-2.1-0.1-2.3c12.5-2.3,17.1-9.4,17.1-19.5c0-11.3-6.6-18.6-18.7-18.6c-6.2,0-6.3,0.5-6.3,4.2V186.5z"/>
		<path style="clip-path:url(#SVGID_00000080922633369222197000000006918892296763344546_);fill:#FFFFFF;" d="M952.5,144.7
			c0-12.2-0.2-14.1-7-14.6l-2.9-0.2c-0.7-0.5-0.5-2.6,0.2-2.9c5.7,0.2,9.4,0.3,14.6,0.3c4.5,0,8.5-0.1,13.5-0.3
			c0.7,0.3,0.9,2.4,0.2,2.9L969,130c-6.7,0.7-7,2.4-7,14.6v13.4c0,2.2,0.2,4.4,1.5,4.4c1,0,2.4-0.7,3.2-1.3c1.6-1.4,4.7-4.4,5.9-5.6
			l12.5-12.4c2.2-2.1,7.9-8,9.1-9.6c0.6-0.8,0.8-1.4,0.8-1.9c0-0.5-0.5-0.8-2-1.2l-3.1-0.7c-0.8-0.8-0.7-2.3,0.2-2.9
			c4.1,0.2,8.7,0.3,12.8,0.3c4.1,0,8-0.1,11.5-0.3c0.8,0.6,0.9,2.2,0.2,2.9c-3,0.2-7.5,1.4-10.8,3.3c-3.3,1.9-9.8,7.3-16.3,13.5
			l-10.5,9.9c-1.6,1.6-2.7,2.7-2.7,3.6c0,0.8,0.7,1.7,2.2,3.6c11,12.7,20,23.1,29,32.7c2.8,2.8,4.9,4.3,8.9,4.8l2.2,0.3
			c0.8,0.6,0.6,2.6-0.2,2.9c-3-0.2-6.2-0.4-11.7-0.4c-4.8,0-8.8,0.1-14.2,0.4c-0.8-0.2-1.2-2.2-0.5-2.9l2.7-0.5
			c1.6-0.2,2.8-0.6,2.8-1.2c0-0.7-0.8-1.6-1.6-2.7c-2.2-2.8-5.2-5.9-9.6-10.9l-9.3-10.5c-6.6-7.4-8.5-9.8-11.3-9.8
			c-1.7,0-2,1.5-2,5.6v15c0,12.2,0.2,13.8,6.7,14.5l3.1,0.3c0.7,0.5,0.5,2.6-0.2,2.9c-5.7-0.2-9.6-0.4-14.2-0.4
			c-4.8,0-8.7,0.1-13.5,0.4c-0.7-0.4-0.9-2.1-0.2-2.9l2.3-0.3c6.2-0.9,6.4-2.3,6.4-14.5V144.7z"/>
		<path style="clip-path:url(#SVGID_00000080922633369222197000000006918892296763344546_);fill:#FFFFFF;" d="M1032.2,144.9
			c0-12.3-0.2-14.3-7.1-14.9l-2.9-0.2c-0.7-0.5-0.5-2.6,0.2-2.9c5.8,0.2,9.8,0.4,14.6,0.4c4.7,0,8.6-0.1,14.4-0.4
			c0.7,0.4,0.9,2.4,0.2,2.9l-2.9,0.2c-6.9,0.6-7.1,2.6-7.1,14.9v41.4c0,12.3,0.2,13.9,7.1,14.8l2.9,0.3c0.7,0.5,0.5,2.6-0.2,2.9
			c-5.8-0.2-9.8-0.4-14.4-0.4c-4.9,0-8.4,0.1-14.2,0.4c-0.7-0.4-0.9-2.2-0.2-2.9l2.4-0.3c6.9-0.8,7.1-2.4,7.1-14.8V144.9z"/>
		<path style="clip-path:url(#SVGID_00000080922633369222197000000006918892296763344546_);fill:#FFFFFF;" d="M1132.7,184.2
			c0,3.5,0,17.3,0.4,20.3c-0.2,0.7-0.9,1.3-2.2,1.3c-1.4-2-4.8-6-14.9-17.5l-27-30.7c-3.1-3.6-11-13.1-13.5-15.7h-0.2
			c-0.5,1.4-0.6,4.1-0.6,7.5v25.3c0,5.5,0.1,20.6,2.1,24c0.7,1.3,3,2,5.9,2.2l3.6,0.4c0.7,0.9,0.6,2.3-0.2,2.9
			c-5.2-0.2-9.3-0.3-13.6-0.3c-4.9,0-8,0.1-12.1,0.3c-0.8-0.6-0.9-2.2-0.2-2.9l3.1-0.4c2.7-0.3,4.5-1,5.1-2.3
			c1.6-4.2,1.5-18.4,1.5-23.9v-33.6c0-3.3-0.1-5.7-2.6-8.4c-1.6-1.6-4.4-2.4-7.2-2.8l-2-0.2c-0.7-0.7-0.7-2.4,0.2-2.9
			c4.9,0.3,11,0.3,13.1,0.3c1.9,0,3.8-0.1,5.3-0.3c2.3,5.9,16,21.3,19.9,25.6l11.3,12.7c8,8.9,13.7,15.5,19.2,21h0.2
			c0.5-0.6,0.5-2.4,0.5-4.9v-24.9c0-5.5-0.1-20.6-2.3-24.1c-0.7-1-2.6-1.7-7.2-2.3l-2-0.2c-0.8-0.7-0.7-2.6,0.2-2.9
			c5.3,0.2,9.3,0.3,13.7,0.3c5,0,8-0.1,12-0.3c0.9,0.6,0.9,2.2,0.2,2.9l-1.6,0.2c-3.7,0.6-6,1.5-6.5,2.4c-2,4.2-1.7,18.6-1.7,23.9
			V184.2z"/>
		<path style="clip-path:url(#SVGID_00000080922633369222197000000006918892296763344546_);fill:#FFFFFF;" d="M1163.2,205.8
			c-9.8,0-15.9-3-18.1-4.3c-1.4-2.6-2.9-10.8-3.1-16.3c0.6-0.8,2.3-1.1,2.8-0.3c1.7,5.9,6.5,17.3,20,17.3c9.8,0,14.5-6.4,14.5-13.4
			c0-5.1-1.1-10.8-9.5-16.3l-11-7.2c-5.8-3.8-12.6-10.5-12.6-20c0-11,8.6-20,23.7-20c3.6,0,7.8,0.7,10.8,1.5
			c1.5,0.5,3.1,0.7,4.1,0.7c1.1,2.8,2.1,9.3,2.1,14.2c-0.5,0.7-2.3,1-2.9,0.4c-1.5-5.6-4.6-13.1-15.8-13.1
			c-11.4,0-13.8,7.6-13.8,12.9c0,6.7,5.6,11.6,9.9,14.3l9.3,5.8c7.3,4.5,14.5,11.3,14.5,22.3C1188,197.1,1178.3,205.8,1163.2,205.8"
			/>
	</g>
</g>
</svg>
